<svg width="65" height="65" viewBox="0 0 65 65" fill="none" xmlns="http://www.w3.org/2000/svg">
<g clip-path="url(#clip0_245_250)">
<path d="M49.7656 0H15.2344C6.82066 0 0 6.82066 0 15.2344V49.7656C0 58.1793 6.82066 65 15.2344 65H49.7656C58.1793 65 65 58.1793 65 49.7656V15.2344C65 6.82066 58.1793 0 49.7656 0Z" fill="#0277BD"/>
<path d="M13.6482 26.0637L14.3749 34.174H32.5244V26.0637H13.6482ZM32.5241 9.64844H12.1875L12.9248 17.7587H32.5241V9.64844ZM32.5241 55.5651V47.127L32.4886 47.1364L23.4561 44.6977L22.8787 38.2291H14.7372L15.8735 50.9636L32.4868 55.5755L32.5241 55.5651Z" fill="#EBEBEB"/>
<path d="M42.4831 34.174L41.5416 44.6923L32.4962 47.1339V55.5714L49.1228 50.9636L49.2446 49.5932L51.1505 28.2417L51.3482 26.0637L52.8125 9.64844H32.4962V17.7587H43.9243L43.1864 26.0637H32.4962V34.174H42.4831Z" fill="white"/>
</g>
<defs>
<clipPath id="clip0_245_250">
<rect width="65" height="65" fill="white"/>
</clipPath>
</defs>
</svg>
