<svg width="261" height="260" viewBox="0 0 261 260" fill="none" xmlns="http://www.w3.org/2000/svg">
<g filter="url(#filter0_d_245_171)">
<rect x="40.8956" y="36" width="180" height="180" rx="32" fill="#242938"/>
<rect x="41.3956" y="36.5" width="179" height="179" rx="31.5" stroke="#242938"/>
</g>
<path d="M114.333 176C123.533 176 131 168.534 131 159.334V142.667H114.333C105.133 142.667 97.6667 150.134 97.6667 159.334C97.6667 168.534 105.133 176 114.333 176Z" fill="#0ACF83"/>
<path d="M97.6667 126C97.6667 116.8 105.133 109.333 114.333 109.333H131V142.666H114.333C105.133 142.666 97.6667 135.2 97.6667 126Z" fill="#A259FF"/>
<path d="M97.6667 92.6667C97.6667 83.4667 105.133 76 114.333 76H131V109.333H114.333C105.133 109.333 97.6667 101.867 97.6667 92.6667Z" fill="#F24E1E"/>
<path d="M131 76H147.667C156.867 76 164.333 83.4667 164.333 92.6667C164.333 101.867 156.867 109.333 147.667 109.333H131V76Z" fill="#FF7262"/>
<path d="M164.333 126C164.333 135.2 156.867 142.666 147.667 142.666C138.467 142.666 131 135.2 131 126C131 116.8 138.467 109.333 147.667 109.333C156.867 109.333 164.333 116.8 164.333 126Z" fill="#1ABCFE"/>
<defs>
<filter id="filter0_d_245_171" x="0.89563" y="0" width="260" height="260" filterUnits="userSpaceOnUse" color-interpolation-filters="sRGB">
<feFlood flood-opacity="0" result="BackgroundImageFix"/>
<feColorMatrix in="SourceAlpha" type="matrix" values="0 0 0 0 0 0 0 0 0 0 0 0 0 0 0 0 0 0 127 0" result="hardAlpha"/>
<feOffset dy="4"/>
<feGaussianBlur stdDeviation="20"/>
<feComposite in2="hardAlpha" operator="out"/>
<feColorMatrix type="matrix" values="0 0 0 0 0.0367917 0 0 0 0 0.0348958 0 0 0 0 0.0484375 0 0 0 0.1 0"/>
<feBlend mode="normal" in2="BackgroundImageFix" result="effect1_dropShadow_245_171"/>
<feBlend mode="normal" in="SourceGraphic" in2="effect1_dropShadow_245_171" result="shape"/>
</filter>
</defs>
</svg>
