<svg width="65" height="65" viewBox="0 0 65 65" fill="none" xmlns="http://www.w3.org/2000/svg">
<g clip-path="url(#clip0_245_230)">
<path d="M49.7656 0H15.2344C6.82066 0 0 6.82066 0 15.2344V49.7656C0 58.1793 6.82066 65 15.2344 65H49.7656C58.1793 65 65 58.1793 65 49.7656V15.2344C65 6.82066 58.1793 0 49.7656 0Z" fill="#F03C2E"/>
<mask id="mask0_245_230" style="mask-type:luminance" maskUnits="userSpaceOnUse" x="7" y="7" width="51" height="51">
<path d="M7.10938 7.10938H57.8906V57.8906H7.10938V7.10938Z" fill="white"/>
</mask>
<g mask="url(#mask0_245_230)">
<path d="M56.9321 30.2386L34.7613 8.06779C34.3042 7.61015 33.7215 7.29846 33.0871 7.17222C32.4527 7.04597 31.7952 7.11085 31.1977 7.35863C30.801 7.52304 30.4406 7.76402 30.1371 8.06779L25.5351 12.6698L31.3749 18.5097C32.7333 18.0336 34.2885 18.3589 35.3706 19.4413C35.8858 19.9574 36.2454 20.608 36.4084 21.3188C36.5715 22.0295 36.5313 22.7718 36.2926 23.4609L41.9214 29.0897C43.2831 28.62 44.854 28.9229 45.941 30.0132C46.4855 30.5574 46.8562 31.251 47.0063 32.0061C47.1564 32.7612 47.0791 33.5438 46.7842 34.2549C46.3888 35.2083 45.631 35.9657 44.6774 36.3606C43.7238 36.7554 42.6524 36.7554 41.6987 36.3606C41.2265 36.1648 40.7974 35.8781 40.4361 35.5166C39.2935 34.374 39.0111 32.6919 39.5888 31.2842L34.3393 26.0347V39.849C34.7203 40.0375 35.0686 40.2861 35.3706 40.5853C36.1004 41.3151 36.5104 42.3049 36.5104 43.337C36.5104 44.3691 36.1004 45.3589 35.3706 46.0887C34.6408 46.8185 33.651 47.2285 32.6189 47.2285C31.5868 47.2285 30.597 46.8185 29.8672 46.0887C29.3225 45.5447 28.9515 44.8513 28.8012 44.0963C28.6508 43.3413 28.7279 42.5586 29.0227 41.8475C29.2184 41.3753 29.5054 40.9464 29.8672 40.5853C30.2432 40.2108 30.6607 39.9267 31.1416 39.7363V25.7935C30.6644 25.5984 30.2311 25.3098 29.8672 24.9447C29.3208 24.3989 28.9493 23.7027 28.8001 22.945C28.6509 22.1872 28.7307 21.4022 29.0293 20.69L23.2689 14.9329L8.06631 30.1196C7.60865 30.5769 7.29693 31.1597 7.1706 31.7943C7.04428 32.4289 7.10902 33.0866 7.35665 33.6844C7.52121 34.0813 7.76235 34.4418 8.06631 34.7455L30.2387 56.9145C30.5422 57.2182 30.9026 57.4592 31.2992 57.6237C32.1006 57.9554 33.0009 57.9554 33.8022 57.6237C34.1989 57.4592 34.5593 57.2182 34.8628 56.9145L56.9321 34.8803C57.236 34.5766 57.477 34.2161 57.6415 33.8192C57.806 33.4224 57.8907 32.997 57.8908 32.5675C57.8909 32.1378 57.8062 31.7124 57.6417 31.3155C57.4772 30.9186 57.2361 30.558 56.9321 30.2544" fill="white"/>
</g>
</g>
<defs>
<clipPath id="clip0_245_230">
<rect width="65" height="65" fill="white"/>
</clipPath>
</defs>
</svg>
