<svg width="65" height="65" viewBox="0 0 65 65" fill="none" xmlns="http://www.w3.org/2000/svg">
<g clip-path="url(#clip0_245_202)">
<path d="M49.7656 0H15.2344C6.82066 0 0 6.82066 0 15.2344V49.7656C0 58.1793 6.82066 65 15.2344 65H49.7656C58.1793 65 65 58.1793 65 49.7656V15.2344C65 6.82066 58.1793 0 49.7656 0Z" fill="#E14E1D"/>
<path d="M12.1875 9.64844L14.3736 34.174H42.4836L41.5403 44.6933L32.4896 47.1404L23.4559 44.6968L22.8518 37.9424H14.7113L15.8755 50.963L32.4878 55.577L49.1212 50.963L51.3513 26.0647H21.7912L21.0491 17.7595H52.0861L52.8125 9.64844H12.1875Z" fill="white"/>
<path d="M32.5 9.64844H12.1875L14.3736 34.174H32.5V26.0647H21.7912L21.0491 17.7595H32.5V9.64844ZM32.5 47.1369L32.4896 47.1404L23.4559 44.6968L22.8518 37.9424H14.7113L15.8755 50.963L32.4878 55.577L32.5002 55.5734V47.1369H32.5Z" fill="#EBEBEB"/>
</g>
<defs>
<clipPath id="clip0_245_202">
<rect width="65" height="65" fill="white"/>
</clipPath>
</defs>
</svg>
