<svg width="65" height="65" viewBox="0 0 65 65" fill="none" xmlns="http://www.w3.org/2000/svg">
<g clip-path="url(#clip0_245_207)">
<path d="M49.7656 0H15.2344C6.82066 0 0 6.82066 0 15.2344V49.7656C0 58.1793 6.82066 65 15.2344 65H49.7656C58.1793 65 65 58.1793 65 49.7656V15.2344C65 6.82066 58.1793 0 49.7656 0Z" fill="#F0DB4F"/>
<path d="M17.091 54.3189L22.065 51.3086C23.0247 53.01 23.8977 54.4496 25.9916 54.4496C27.9988 54.4496 29.2642 53.6646 29.2642 50.6106V29.8416H35.3727V50.6969C35.3727 57.0235 31.6642 59.9033 26.2534 59.9033C21.367 59.9033 18.5306 57.3726 17.0907 54.3184M38.6905 53.6643L43.664 50.7848C44.9734 52.9229 46.6751 54.4936 49.6854 54.4936C52.2166 54.4936 53.8304 53.2281 53.8304 51.4828C53.8304 49.3885 52.1724 48.6466 49.38 47.4253L47.8532 46.7705C43.4462 44.8946 40.5227 42.5384 40.5227 37.5644C40.5227 32.9829 44.0134 29.4922 49.4676 29.4922C53.3508 29.4922 56.1433 30.845 58.1501 34.3791L53.3942 37.4334C52.3469 35.5572 51.2129 34.8156 49.4676 34.8156C47.6785 34.8156 46.5441 35.95 46.5441 37.4334C46.5441 39.2658 47.6785 40.0077 50.2963 41.1424L51.8233 41.7967C57.0154 44.0222 59.9389 46.2906 59.9389 51.3954C59.9389 56.8935 55.6194 59.9038 49.8164 59.9038C44.1444 59.9038 40.4793 57.1987 38.6905 53.6643Z" fill="#323330"/>
</g>
<defs>
<clipPath id="clip0_245_207">
<rect width="65" height="65" fill="white"/>
</clipPath>
</defs>
</svg>
