<svg width="261" height="260" viewBox="0 0 261 260" fill="none" xmlns="http://www.w3.org/2000/svg">
<g filter="url(#filter0_d_245_167)">
<rect x="40.1718" y="36" width="180" height="180" rx="32" fill="#242938"/>
<rect x="40.6718" y="36.5" width="179" height="179" rx="31.5" stroke="#242938"/>
</g>
<path d="M139.802 140.717L115.277 135.592C115.174 135.791 115.06 135.983 114.935 136.169L137.262 168.738L138.608 167.392L142.407 143.772C141.765 143.5 141.195 143.083 140.743 142.553C140.291 142.022 139.968 141.394 139.802 140.717V140.717ZM130.855 108.658C129.937 110.067 128.351 111 126.545 111C126.266 111 125.996 110.972 125.73 110.93L114.546 128.43L144.427 115.57C144.418 115.45 144.392 115.338 144.392 115.214C144.392 114.963 144.426 114.719 144.467 114.478L130.855 108.658V108.658ZM131.668 105.469L146.146 111.659C146.608 111.299 147.135 111.032 147.699 110.875L150.079 96.0782L141.013 87.0123L130.809 102.98C131.309 103.72 131.605 104.578 131.668 105.469V105.469ZM162.005 108.005L152.92 98.9172L150.945 111.186C151.445 111.438 151.895 111.78 152.271 112.195L162.005 108.005ZM140.237 137.486C140.592 136.84 141.103 136.294 141.723 135.895C142.343 135.496 143.052 135.259 143.787 135.203L146.396 118.974C146.191 118.838 146.009 118.675 145.829 118.508L115.776 131.442C115.852 131.756 115.905 132.076 115.93 132.409L140.237 137.486ZM164.48 110.481L153.968 115.004L179.905 126.094L179.999 126L164.48 110.481ZM145.695 143.82L142.535 163.462L160.88 145.117L147.666 142.358C147.16 143.021 146.476 143.528 145.695 143.82ZM110.037 138.771C109.373 138.771 108.737 138.656 108.141 138.454L102.048 147.991L99.693 145.638L105.465 136.606C105.322 136.429 105.189 136.245 105.066 136.053L94.6103 140.555L92.1318 138.076L103.577 133.15L82.8855 128.831L80.0554 126L80.9507 125.105L104.812 130.086C105.086 129.565 105.437 129.089 105.854 128.673L94.2728 111.781L96.6118 109.442L108.711 127.092C109.146 126.991 109.59 126.939 110.036 126.937C110.547 126.937 111.042 127.009 111.516 127.131L122.838 109.415C121.916 108.459 121.401 107.183 121.402 105.855C121.402 105.448 121.454 105.055 121.543 104.677L107.418 98.6375L109.896 96.1595L123.278 101.883C123.957 101.323 124.768 100.948 125.633 100.793C126.499 100.638 127.39 100.708 128.221 100.997L138.66 84.6592L130.001 76L80.0007 126L130.001 176L134.921 171.08L112.427 138.264C111.674 138.598 110.86 138.77 110.037 138.771ZM149.579 119.673L146.924 136.172C147.388 136.545 147.772 137.007 148.054 137.531C148.336 138.055 148.509 138.631 148.563 139.224L163.63 142.369L177.427 128.572L152.524 117.925C151.812 118.874 150.753 119.502 149.579 119.674V119.673Z" fill="#25C7B7"/>
<defs>
<filter id="filter0_d_245_167" x="0.171753" y="0" width="260" height="260" filterUnits="userSpaceOnUse" color-interpolation-filters="sRGB">
<feFlood flood-opacity="0" result="BackgroundImageFix"/>
<feColorMatrix in="SourceAlpha" type="matrix" values="0 0 0 0 0 0 0 0 0 0 0 0 0 0 0 0 0 0 127 0" result="hardAlpha"/>
<feOffset dy="4"/>
<feGaussianBlur stdDeviation="20"/>
<feComposite in2="hardAlpha" operator="out"/>
<feColorMatrix type="matrix" values="0 0 0 0 0.0367917 0 0 0 0 0.0348958 0 0 0 0 0.0484375 0 0 0 0.1 0"/>
<feBlend mode="normal" in2="BackgroundImageFix" result="effect1_dropShadow_245_167"/>
<feBlend mode="normal" in="SourceGraphic" in2="effect1_dropShadow_245_167" result="shape"/>
</filter>
</defs>
</svg>
