<svg width="261" height="261" viewBox="0 0 261 261" fill="none" xmlns="http://www.w3.org/2000/svg">
<g filter="url(#filter0_d_245_194)">
<rect x="40.724" y="36.4058" width="180" height="180" rx="32" fill="#242938"/>
<rect x="41.224" y="36.9058" width="179" height="179" rx="31.5" stroke="#242938"/>
</g>
<path d="M174.06 116.938C175.31 113.5 175.623 110.062 175.31 106.625C174.998 103.188 173.748 99.75 172.185 96.625C169.373 91.9375 165.31 88.1875 160.623 86C155.623 83.8125 150.31 83.1875 144.998 84.4375C142.498 81.9375 139.685 79.75 136.56 78.1875C133.435 76.625 129.685 76 126.248 76C120.935 76 115.623 77.5625 111.248 80.6875C106.873 83.8125 103.748 88.1875 102.185 93.1875C98.4351 94.125 95.3101 95.6875 92.1851 97.5625C89.3726 99.75 87.1851 102.562 85.3101 105.375C82.4976 110.062 81.5601 115.375 82.1851 120.688C82.8101 126 84.9976 131 88.4351 135.062C87.1851 138.5 86.8726 141.938 87.1851 145.375C87.4976 148.812 88.7476 152.25 90.3101 155.375C93.1226 160.062 97.1851 163.812 101.873 166C106.873 168.188 112.185 168.812 117.498 167.562C119.998 170.062 122.81 172.25 125.935 173.812C129.06 175.375 132.81 176 136.248 176C141.56 176 146.873 174.438 151.248 171.312C155.623 168.188 158.748 163.812 160.31 158.812C163.748 158.188 167.185 156.625 169.998 154.438C172.81 152.25 175.31 149.75 176.873 146.625C179.685 141.938 180.623 136.625 179.998 131.313C179.373 126 177.498 121 174.06 116.938ZM136.56 169.438C131.56 169.438 127.81 167.875 124.373 165.062C124.373 165.062 124.685 164.75 124.998 164.75L144.998 153.188C145.623 152.875 145.935 152.562 146.248 151.938C146.56 151.312 146.56 151 146.56 150.375V122.25L154.998 127.25V150.375C155.31 161.312 146.56 169.438 136.56 169.438ZM96.2476 152.25C94.0601 148.5 93.1226 144.125 94.0601 139.75C94.0601 139.75 94.3726 140.062 94.6851 140.062L114.685 151.625C115.31 151.938 115.623 151.938 116.248 151.938C116.873 151.938 117.498 151.938 117.81 151.625L142.185 137.563V147.25L121.873 159.125C117.498 161.625 112.498 162.25 107.81 161C102.81 159.75 98.7476 156.625 96.2476 152.25ZM90.9351 108.812C93.1226 105.062 96.5601 102.25 100.623 100.688V101.313V124.438C100.623 125.062 100.623 125.688 100.935 126C101.248 126.625 101.56 126.938 102.185 127.25L126.56 141.312L118.123 146.312L98.1226 134.75C93.7476 132.25 90.6226 128.188 89.3726 123.5C88.1226 118.812 88.4351 113.188 90.9351 108.812ZM159.998 124.75L135.623 110.688L144.06 105.688L164.06 117.25C167.185 119.125 169.685 121.625 171.248 124.75C172.81 127.875 173.748 131.312 173.435 135.062C173.123 138.5 171.873 141.938 169.685 144.75C167.498 147.562 164.685 149.75 161.248 151V127.25C161.248 126.625 161.248 126 160.935 125.688C160.935 125.688 160.623 125.062 159.998 124.75ZM168.435 112.25C168.435 112.25 168.123 111.938 167.81 111.938L147.81 100.375C147.185 100.062 146.873 100.062 146.248 100.062C145.623 100.062 144.998 100.062 144.685 100.375L120.31 114.438V104.75L140.623 92.875C143.748 91 147.185 90.375 150.935 90.375C154.373 90.375 157.81 91.625 160.935 93.8125C163.748 96 166.248 98.8125 167.498 101.938C168.748 105.062 169.06 108.812 168.435 112.25ZM115.935 129.75L107.498 124.75V101.313C107.498 97.875 108.435 94.125 110.31 91.3125C112.185 88.1875 114.998 86 118.123 84.4375C121.248 82.875 124.998 82.25 128.435 82.875C131.873 83.1875 135.31 84.75 138.123 86.9375C138.123 86.9375 137.81 87.25 137.498 87.25L117.498 98.8125C116.873 99.125 116.56 99.4375 116.248 100.062C115.935 100.688 115.935 101 115.935 101.625V129.75ZM120.31 119.75L131.248 113.5L142.185 119.75V132.25L131.248 138.5L120.31 132.25V119.75Z" fill="white"/>
<defs>
<filter id="filter0_d_245_194" x="0.723999" y="0.405762" width="260" height="260" filterUnits="userSpaceOnUse" color-interpolation-filters="sRGB">
<feFlood flood-opacity="0" result="BackgroundImageFix"/>
<feColorMatrix in="SourceAlpha" type="matrix" values="0 0 0 0 0 0 0 0 0 0 0 0 0 0 0 0 0 0 127 0" result="hardAlpha"/>
<feOffset dy="4"/>
<feGaussianBlur stdDeviation="20"/>
<feComposite in2="hardAlpha" operator="out"/>
<feColorMatrix type="matrix" values="0 0 0 0 0.0367917 0 0 0 0 0.0348958 0 0 0 0 0.0484375 0 0 0 0.1 0"/>
<feBlend mode="normal" in2="BackgroundImageFix" result="effect1_dropShadow_245_194"/>
<feBlend mode="normal" in="SourceGraphic" in2="effect1_dropShadow_245_194" result="shape"/>
</filter>
</defs>
</svg>
