<svg width="261" height="261" viewBox="0 0 261 261" fill="none" xmlns="http://www.w3.org/2000/svg">
<g filter="url(#filter0_d_245_184)">
<rect x="40.6195" y="36.7031" width="180" height="180" rx="32" fill="#242938"/>
<rect x="41.1195" y="37.2031" width="179" height="179" rx="31.5" stroke="#242938"/>
</g>
<path d="M167.108 132.614C163.619 132.632 160.587 133.473 158.048 134.715C157.117 132.87 156.185 131.226 156.021 130.02C155.838 128.614 155.619 127.755 155.838 126.075C156.057 124.395 157.044 122.002 157.025 121.819C157.007 121.637 156.806 120.778 154.797 120.76C152.788 120.742 151.053 121.143 150.852 121.673C150.651 122.203 150.267 123.408 150.011 124.65C149.664 126.477 145.993 132.998 143.893 136.413C143.217 135.08 142.632 133.911 142.504 132.979C142.322 131.573 142.103 130.714 142.322 129.034C142.541 127.354 143.527 124.961 143.509 124.778C143.491 124.596 143.29 123.737 141.281 123.719C139.271 123.701 137.536 124.102 137.335 124.632C137.134 125.162 136.915 126.404 136.495 127.609C136.075 128.815 131.198 139.701 129.919 142.514C129.262 143.957 128.696 145.108 128.294 145.893C128.294 145.893 128.276 145.948 128.221 146.039C127.874 146.715 127.673 147.08 127.673 147.08C127.673 147.08 127.673 147.08 127.673 147.099C127.399 147.592 127.107 148.048 126.961 148.048C126.851 148.048 126.65 146.733 126.997 144.943C127.728 141.162 129.463 135.281 129.445 135.08C129.445 134.97 129.773 133.947 128.312 133.418C126.887 132.888 126.376 133.765 126.248 133.765C126.12 133.765 126.029 134.075 126.029 134.075C126.029 134.075 127.618 127.463 122.997 127.463C120.111 127.463 116.129 130.623 114.156 133.473C112.914 134.148 110.266 135.591 107.435 137.144C106.357 137.747 105.243 138.349 104.202 138.916C104.129 138.843 104.056 138.751 103.983 138.678C98.3934 132.705 88.0552 128.486 88.4936 120.468C88.658 117.545 89.6626 109.874 108.348 100.558C123.728 92.9782 135.965 95.0787 138.084 99.7364C141.116 106.385 131.527 118.732 115.636 120.522C109.572 121.198 106.394 118.86 105.59 117.983C104.75 117.07 104.622 117.015 104.311 117.198C103.8 117.472 104.129 118.294 104.311 118.769C104.786 120.011 106.741 122.203 110.047 123.28C112.969 124.23 120.074 124.76 128.677 121.436C138.303 117.71 145.829 107.353 143.619 98.677C141.408 89.8731 126.796 86.9689 112.969 91.8822C104.75 94.8047 95.8363 99.4076 89.4251 105.399C81.8085 112.522 80.603 118.714 81.0961 121.308C82.8679 130.514 95.5623 136.505 100.64 140.943C100.384 141.089 100.147 141.217 99.946 141.327C97.4071 142.587 87.7265 147.646 85.3154 152.998C82.5756 159.062 85.7538 163.41 87.8543 163.994C94.3751 165.802 101.078 162.551 104.677 157.181C108.275 151.811 107.837 144.834 106.174 141.637C106.156 141.601 106.138 141.564 106.101 141.528C106.759 141.144 107.435 140.742 108.092 140.359C109.389 139.591 110.668 138.879 111.764 138.295C111.143 139.993 110.686 142.021 110.467 144.943C110.193 148.377 111.599 152.834 113.444 154.587C114.266 155.354 115.234 155.373 115.855 155.373C118.01 155.373 118.979 153.583 120.056 151.464C121.371 148.87 122.559 145.856 122.559 145.856C122.559 145.856 121.079 154.003 125.097 154.003C126.559 154.003 128.038 152.103 128.696 151.135C128.696 151.153 128.696 151.153 128.696 151.153C128.696 151.153 128.732 151.099 128.805 150.971C128.951 150.733 129.043 150.587 129.043 150.587C129.043 150.587 129.043 150.569 129.043 150.551C129.627 149.528 130.942 147.208 132.897 143.354C135.417 138.386 137.847 132.176 137.847 132.176C137.847 132.176 138.066 133.692 138.815 136.212C139.253 137.692 140.166 139.317 140.897 140.888C140.312 141.71 139.947 142.167 139.947 142.167C139.947 142.167 139.947 142.167 139.965 142.185C139.491 142.806 138.979 143.482 138.413 144.14C136.422 146.514 134.047 149.236 133.719 150.021C133.335 150.953 133.426 151.628 134.157 152.176C134.687 152.578 135.637 152.633 136.605 152.578C138.395 152.45 139.655 152.012 140.276 151.738C141.244 151.391 142.376 150.861 143.436 150.076C145.39 148.633 146.578 146.569 146.468 143.847C146.413 142.35 145.92 140.852 145.317 139.445C145.5 139.19 145.664 138.934 145.847 138.678C148.934 134.167 151.327 129.217 151.327 129.217C151.327 129.217 151.546 130.733 152.295 133.253C152.66 134.532 153.409 135.92 154.066 137.272C151.162 139.628 149.372 142.368 148.733 144.158C147.582 147.482 148.477 148.98 150.176 149.327C150.943 149.491 152.039 149.126 152.843 148.779C153.865 148.45 155.071 147.884 156.222 147.044C158.176 145.601 160.057 143.592 159.948 140.87C159.893 139.628 159.564 138.404 159.108 137.217C161.573 136.194 164.752 135.628 168.807 136.103C177.501 137.126 179.218 142.55 178.889 144.834C178.56 147.117 176.734 148.359 176.131 148.742C175.528 149.126 175.327 149.254 175.382 149.528C175.455 149.93 175.747 149.911 176.259 149.838C176.971 149.71 180.825 147.994 180.99 143.792C181.264 138.422 176.149 132.559 167.108 132.614ZM100.037 155.227C97.1514 158.368 93.133 159.556 91.3978 158.551C89.5347 157.473 90.2653 152.834 93.8088 149.51C95.9641 147.482 98.7405 145.601 100.585 144.45C101.005 144.194 101.626 143.829 102.375 143.372C102.503 143.299 102.576 143.263 102.576 143.263C102.722 143.171 102.868 143.08 103.015 142.989C104.311 147.738 103.069 151.921 100.037 155.227ZM121.043 140.943C120.038 143.391 117.937 149.656 116.659 149.309C115.563 149.016 114.887 144.267 116.44 139.573C117.225 137.217 118.887 134.404 119.855 133.308C121.426 131.555 123.161 130.97 123.581 131.683C124.111 132.614 121.664 139.409 121.043 140.943ZM138.376 149.236C137.956 149.455 137.554 149.601 137.372 149.491C137.244 149.418 137.554 149.126 137.554 149.126C137.554 149.126 139.728 146.788 140.586 145.729C141.08 145.108 141.664 144.377 142.285 143.555C142.285 143.628 142.285 143.719 142.285 143.792C142.285 146.587 139.582 148.468 138.376 149.236ZM151.747 146.185C151.436 145.966 151.491 145.235 152.532 142.952C152.934 142.057 153.884 140.56 155.509 139.117C155.692 139.701 155.82 140.267 155.802 140.797C155.783 144.322 153.263 145.637 151.747 146.185Z" fill="#CD6799"/>
<defs>
<filter id="filter0_d_245_184" x="0.619507" y="0.703125" width="260" height="260" filterUnits="userSpaceOnUse" color-interpolation-filters="sRGB">
<feFlood flood-opacity="0" result="BackgroundImageFix"/>
<feColorMatrix in="SourceAlpha" type="matrix" values="0 0 0 0 0 0 0 0 0 0 0 0 0 0 0 0 0 0 127 0" result="hardAlpha"/>
<feOffset dy="4"/>
<feGaussianBlur stdDeviation="20"/>
<feComposite in2="hardAlpha" operator="out"/>
<feColorMatrix type="matrix" values="0 0 0 0 0.0367917 0 0 0 0 0.0348958 0 0 0 0 0.0484375 0 0 0 0.1 0"/>
<feBlend mode="normal" in2="BackgroundImageFix" result="effect1_dropShadow_245_184"/>
<feBlend mode="normal" in="SourceGraphic" in2="effect1_dropShadow_245_184" result="shape"/>
</filter>
</defs>
</svg>
