<svg width="50" height="50" viewBox="0 0 50 50" fill="none" xmlns="http://www.w3.org/2000/svg">
<g clip-path="url(#clip0_245_226)">
<path d="M38.2812 0H11.7188C5.24666 0 0 5.24666 0 11.7188V38.2812C0 44.7533 5.24666 50 11.7188 50H38.2812C44.7533 50 50 44.7533 50 38.2812V11.7188C50 5.24666 44.7533 0 38.2812 0Z" fill="#242938"/>
<path fill-rule="evenodd" clip-rule="evenodd" d="M16.2109 21.4844C17.3828 16.7969 20.3127 14.4531 25 14.4531C32.0312 14.4531 32.9102 19.7266 36.4258 20.6055C38.7697 21.1916 40.8203 20.3127 42.5781 17.9688C41.4064 22.6561 38.4764 25 33.7891 25C26.7578 25 25.8789 19.7266 22.3633 18.8477C20.0193 18.2617 17.9688 19.1406 16.2109 21.4844ZM7.42188 32.0312C8.59375 27.3439 11.5234 25 16.2109 25C23.2422 25 24.1211 30.2734 27.6367 31.1523C29.9807 31.7385 32.0312 30.8596 33.7891 28.5156C32.6174 33.2029 29.6873 35.5469 25 35.5469C17.9688 35.5469 17.0898 30.2734 13.5742 29.3945C11.2305 28.8084 9.17969 29.6873 7.42188 32.0312Z" fill="url(#paint0_linear_245_226)"/>
</g>
<defs>
<linearGradient id="paint0_linear_245_226" x1="16.8945" y1="14.4531" x2="31.9336" y2="36.2305" gradientUnits="userSpaceOnUse">
<stop stop-color="#32B1C1"/>
<stop offset="1" stop-color="#14C6B7"/>
</linearGradient>
<clipPath id="clip0_245_226">
<rect width="50" height="50" fill="white"/>
</clipPath>
</defs>
</svg>
