<svg width="65" height="65" viewBox="0 0 65 65" fill="none" xmlns="http://www.w3.org/2000/svg">
<g clip-path="url(#clip0_245_198)">
<path d="M49.7656 0H15.2344C6.82066 0 0 6.82066 0 15.2344V49.7656C0 58.1793 6.82066 65 15.2344 65H49.7656C58.1793 65 65 58.1793 65 49.7656V15.2344C65 6.82066 58.1793 0 49.7656 0Z" fill="#007ACC"/>
<path d="M14.3738 32.7154L14.3533 35.3774H22.8134V59.417H28.798V35.3774H37.2582V32.767C37.2582 31.3225 37.2274 30.1154 37.186 30.0844C37.1551 30.0433 32.0066 30.0225 25.7646 30.0329L14.4051 30.0639L14.3738 32.7154ZM52.4486 29.9882C54.0992 30.4011 55.3581 31.1336 56.5136 32.3302C57.1121 32.9701 57.9992 34.136 58.0716 34.4146C58.0922 34.4971 55.2652 36.3955 53.5526 37.4581C53.4906 37.4995 53.2428 37.2311 52.9643 36.8185C52.1287 35.6011 51.2517 35.0747 49.9103 34.982C47.9397 34.8477 46.6707 35.8796 46.6811 37.6026C46.6811 38.1081 46.7532 38.4072 46.9597 38.8201C47.3928 39.7176 48.1977 40.2542 50.7256 41.3477C55.3787 43.3495 57.3698 44.6701 58.6081 46.5477C59.9906 48.6422 60.3001 51.9851 59.3612 54.4716C58.3296 57.1747 55.7707 59.0112 52.1698 59.6201C51.0557 59.8161 48.4143 59.7851 47.2176 59.5685C44.6072 59.1041 42.1311 57.8146 40.6041 56.1225C40.0057 55.4621 38.8397 53.7391 38.9121 53.6152C38.9428 53.5741 39.2112 53.409 39.5103 53.2336C39.7992 53.0685 40.8931 52.4391 41.9247 51.8407L43.7922 50.7572L44.1842 51.3351C44.7311 52.1707 45.9278 53.3161 46.6501 53.6977C48.7238 54.7916 51.5716 54.6367 52.9747 53.3781C53.5732 52.8311 53.8207 52.2637 53.8207 51.4281C53.8207 50.6747 53.7278 50.3446 53.3358 49.7772C52.8302 49.055 51.7986 48.4462 48.8683 47.1772C45.5152 45.7327 44.0707 44.8351 42.7501 43.4112C41.9866 42.586 41.2643 41.2652 40.9652 40.1612C40.7176 39.2431 40.6557 36.9422 40.8517 36.0137C41.5428 32.7741 43.9882 30.5146 47.5167 29.8437C48.6621 29.6272 51.3238 29.7097 52.4486 29.9882Z" fill="white"/>
</g>
<defs>
<clipPath id="clip0_245_198">
<rect width="65" height="65" fill="white"/>
</clipPath>
</defs>
</svg>
