<svg width="25" height="25" viewBox="0 0 25 25" fill="none" xmlns="http://www.w3.org/2000/svg">
<g clip-path="url(#clip0_245_10)">
<path d="M15.3451 0.054889C14.681 -0.184369 13.9896 0.29903 13.7982 1.12911L8.79822 23.0041C8.60681 23.8342 8.99353 24.6985 9.65759 24.9377C10.3217 25.177 11.0131 24.6936 11.2045 23.8635L16.2045 1.98848C16.3959 1.15841 16.0092 0.294147 15.3451 0.054889ZM18.4935 5.91915C18.0053 6.5295 18.0053 7.52071 18.4935 8.13106L21.9818 12.4963L18.4896 16.8615C18.0013 17.4719 18.0013 18.4631 18.4896 19.0735C18.9779 19.6838 19.7709 19.6838 20.2592 19.0735L24.6342 13.6047C25.1224 12.9943 25.1224 12.0031 24.6342 11.3928L20.2592 5.92403C19.7709 5.31368 18.9779 5.31368 18.4896 5.92403L18.4935 5.91915ZM6.51306 5.91915C6.02478 5.3088 5.23181 5.3088 4.74353 5.91915L0.36853 11.3879C-0.119751 11.9983 -0.119751 12.9895 0.36853 13.5998L4.74353 19.0686C5.23181 19.6789 6.02478 19.6789 6.51306 19.0686C7.00134 18.4582 7.00134 17.467 6.51306 16.8567L3.02087 12.4963L6.51306 8.13106C7.00134 7.52071 7.00134 6.5295 6.51306 5.91915Z" fill="#F59E0B"/>
</g>
<defs>
<clipPath id="clip0_245_10">
<rect width="25" height="25" fill="white"/>
</clipPath>
</defs>
</svg>
