<svg width="25" height="25" viewBox="0 0 25 25" fill="none" xmlns="http://www.w3.org/2000/svg">
<path d="M8.36189 19.627C8.36189 19.7278 8.24597 19.8085 8.0998 19.8085C7.93347 19.8236 7.81754 19.7429 7.81754 19.627C7.81754 19.5262 7.93347 19.4456 8.07964 19.4456C8.23085 19.4304 8.36189 19.5111 8.36189 19.627ZM6.79436 19.4002C6.75907 19.501 6.85988 19.6169 7.01109 19.6472C7.14214 19.6976 7.29335 19.6472 7.32359 19.5464C7.35383 19.4456 7.25806 19.3296 7.10685 19.2843C6.97581 19.249 6.82964 19.2994 6.79436 19.4002ZM9.02218 19.3145C8.87601 19.3498 8.7752 19.4456 8.79032 19.5615C8.80544 19.6623 8.93649 19.7278 9.0877 19.6925C9.23387 19.6573 9.33468 19.5615 9.31956 19.4607C9.30444 19.3649 9.16835 19.2994 9.02218 19.3145ZM12.3387 0C5.34778 0 0 5.30746 0 12.2984C0 17.8881 3.51815 22.6714 8.54335 24.3548C9.18851 24.4708 9.41532 24.0726 9.41532 23.745C9.41532 23.4325 9.4002 21.7087 9.4002 20.6502C9.4002 20.6502 5.87198 21.4063 5.13105 19.1482C5.13105 19.1482 4.55645 17.6815 3.72984 17.3034C3.72984 17.3034 2.5756 16.5121 3.81048 16.5272C3.81048 16.5272 5.06552 16.628 5.75605 17.8276C6.85988 19.7732 8.70968 19.2137 9.43044 18.8811C9.54637 18.0746 9.87399 17.5151 10.2369 17.1825C7.41936 16.87 4.57661 16.4617 4.57661 11.6129C4.57661 10.2268 4.95968 9.53125 5.76613 8.64415C5.63508 8.31653 5.20665 6.96573 5.89718 5.22177C6.9506 4.89415 9.375 6.58266 9.375 6.58266C10.3831 6.3004 11.4667 6.15423 12.5403 6.15423C13.6139 6.15423 14.6976 6.3004 15.7056 6.58266C15.7056 6.58266 18.13 4.88911 19.1835 5.22177C19.874 6.97077 19.4456 8.31653 19.3145 8.64415C20.121 9.53629 20.6149 10.2319 20.6149 11.6129C20.6149 16.4768 17.6462 16.8649 14.8286 17.1825C15.2923 17.5806 15.6855 18.3367 15.6855 19.5212C15.6855 21.2198 15.6704 23.3216 15.6704 23.7349C15.6704 24.0625 15.9022 24.4607 16.5423 24.3448C21.5827 22.6714 25 17.8881 25 12.2984C25 5.30746 19.3296 0 12.3387 0ZM4.89919 17.3841C4.83367 17.4345 4.84879 17.5504 4.93448 17.6462C5.01512 17.7268 5.13105 17.7621 5.19657 17.6966C5.2621 17.6462 5.24698 17.5302 5.16129 17.4345C5.08065 17.3538 4.96472 17.3185 4.89919 17.3841ZM4.35484 16.9758C4.31956 17.0413 4.36996 17.122 4.47077 17.1724C4.55141 17.2228 4.65222 17.2077 4.6875 17.1371C4.72278 17.0716 4.67238 16.9909 4.57157 16.9405C4.47077 16.9103 4.39012 16.9254 4.35484 16.9758ZM5.9879 18.7702C5.90726 18.8357 5.9375 18.9869 6.05343 19.0827C6.16935 19.1986 6.31552 19.2137 6.38105 19.1331C6.44657 19.0675 6.41633 18.9163 6.31552 18.8206C6.20464 18.7046 6.05343 18.6895 5.9879 18.7702ZM5.41331 18.0292C5.33266 18.0796 5.33266 18.2107 5.41331 18.3266C5.49395 18.4425 5.63004 18.4929 5.69556 18.4425C5.77621 18.377 5.77621 18.246 5.69556 18.13C5.625 18.0141 5.49395 17.9637 5.41331 18.0292Z" fill="#F59E0B"/>
</svg>
