<svg xmlns="http://www.w3.org/2000/svg" width="25" height="22" viewBox="0 0 25 22" fill="none">
<path d="M11.0254 20.7704L10.9033 20.6581L2.34863 12.7138C0.849609 11.3222 0 9.36906 0 7.32316V7.16203C0 3.72453 2.44141 0.775309 5.82031 0.130778C7.74414 -0.240316 9.71191 0.20402 11.2793 1.30754C11.7188 1.62004 12.1289 1.98136 12.5 2.3964C12.7051 2.16203 12.9248 1.94718 13.1592 1.74699C13.3398 1.59074 13.5254 1.44425 13.7207 1.30754C15.2881 0.20402 17.2559 -0.240316 19.1797 0.125895C22.5586 0.770426 25 3.72453 25 7.16203V7.32316C25 9.36906 24.1504 11.3222 22.6514 12.7138L14.0967 20.6581L13.9746 20.7704C13.5742 21.1415 13.0469 21.3515 12.5 21.3515C11.9531 21.3515 11.4258 21.1464 11.0254 20.7704ZM11.6748 4.98918C11.6553 4.97453 11.6406 4.955 11.626 4.93546L10.7568 3.9589L10.752 3.95402C9.62402 2.68937 7.91992 2.1132 6.25977 2.43058C3.98438 2.86515 2.34375 4.84757 2.34375 7.16203V7.32316C2.34375 8.71476 2.9248 10.0478 3.94531 10.995L12.5 18.9394L21.0547 10.995C22.0752 10.0478 22.6562 8.71476 22.6562 7.32316V7.16203C22.6562 4.85246 21.0156 2.86515 18.7451 2.43058C17.085 2.1132 15.376 2.69425 14.2529 3.95402C14.2529 3.95402 14.2529 3.95402 14.248 3.9589C14.2432 3.96379 14.248 3.9589 14.2432 3.96379L13.374 4.94035C13.3594 4.95988 13.3398 4.97453 13.3252 4.99406C13.1055 5.21379 12.8076 5.33586 12.5 5.33586C12.1924 5.33586 11.8945 5.21379 11.6748 4.99406V4.98918Z" fill="#F59E0B"/>
</svg>