<svg width="21" height="28" viewBox="0 0 21 28" fill="none" xmlns="http://www.w3.org/2000/svg">
<g clip-path="url(#clip0_276_13)">
<path d="M14.875 21C15.4 19.2555 16.4883 17.768 17.5656 16.2859C17.85 15.8977 18.1344 15.5094 18.4078 15.1156C19.4906 13.557 20.125 11.6703 20.125 9.63047C20.125 4.30938 15.8156 0 10.5 0C5.18438 0 0.875 4.30938 0.875 9.625C0.875 11.6648 1.50938 13.557 2.59219 15.1102C2.86563 15.5039 3.15 15.8922 3.43438 16.2805C4.51719 17.7625 5.60547 19.2555 6.125 20.9945H14.875V21ZM10.5 28C12.9172 28 14.875 26.0422 14.875 23.625V22.75H6.125V23.625C6.125 26.0422 8.08282 28 10.5 28ZM6.125 9.625C6.125 10.1063 5.73125 10.5 5.25 10.5C4.76875 10.5 4.375 10.1063 4.375 9.625C4.375 6.23984 7.11485 3.5 10.5 3.5C10.9813 3.5 11.375 3.89375 11.375 4.375C11.375 4.85625 10.9813 5.25 10.5 5.25C8.08282 5.25 6.125 7.20781 6.125 9.625Z" fill="#F59E0B"/>
</g>
<defs>
<clipPath id="clip0_276_13">
<rect width="21" height="28" fill="white"/>
</clipPath>
</defs>
</svg>
