<svg width="26" height="21" viewBox="0 0 26 21" fill="none" xmlns="http://www.w3.org/2000/svg">
<path d="M23.9712 11.0583C26.3084 8.72104 26.3084 4.93599 23.9712 2.59877C21.9029 0.530439 18.6432 0.261555 16.2646 1.96173L16.1984 2.00723C15.6027 2.43331 15.4662 3.26064 15.8923 3.85218C16.3184 4.44373 17.1457 4.58437 17.7372 4.1583L17.8034 4.11279C19.1313 3.1655 20.9473 3.31442 22.0973 4.46855C23.4003 5.7716 23.4003 7.8813 22.0973 9.18435L17.4559 13.834C16.1529 15.137 14.0432 15.137 12.7401 13.834C11.586 12.6798 11.4371 10.8638 12.3844 9.5401L12.4299 9.47392C12.856 8.87824 12.7153 8.0509 12.1238 7.62896C11.5322 7.20702 10.7007 7.34353 10.2788 7.93508L10.2333 8.00126C8.52899 10.3757 8.79788 13.6354 10.8662 15.7037C13.2034 18.041 16.9885 18.041 19.3257 15.7037L23.9712 11.0583ZM2.47704 10.0903C0.139816 12.4275 0.139816 16.2125 2.47704 18.5498C4.54538 20.6181 7.80508 20.887 10.1837 19.1868L10.2499 19.1413C10.8455 18.7152 10.982 17.8879 10.556 17.2964C10.1299 16.7048 9.30255 16.5642 8.71101 16.9902L8.64482 17.0357C7.31695 17.983 5.50095 17.8341 4.35095 16.68C3.0479 15.3728 3.0479 13.2631 4.35095 11.9601L8.9923 7.31458C10.2954 6.01152 12.4051 6.01152 13.7081 7.31458C14.8622 8.46871 15.0112 10.2847 14.0639 11.6126L14.0184 11.6788C13.5923 12.2744 13.7329 13.1018 14.3245 13.5237C14.916 13.9457 15.7475 13.8091 16.1694 13.2176L16.2149 13.1514C17.9192 10.7728 17.6504 7.51314 15.582 5.4448C13.2448 3.10758 9.45975 3.10758 7.12252 5.4448L2.47704 10.0903Z" fill="#F59E0B"/>
</svg>
