<svg width="35" height="30" viewBox="0 0 35 30" fill="none" xmlns="http://www.w3.org/2000/svg">
<path d="M3.3871 6.77419C4.28541 6.77419 5.14693 6.41734 5.78214 5.78213C6.41734 5.14693 6.77419 4.28541 6.77419 3.38709C6.77419 2.48878 6.41734 1.62726 5.78214 0.992057C5.14693 0.356854 4.28541 0 3.3871 0C2.48878 0 1.62726 0.356854 0.992058 0.992057C0.356854 1.62726 0 2.48878 0 3.38709C0 4.28541 0.356854 5.14693 0.992058 5.78213C1.62726 6.41734 2.48878 6.77419 3.3871 6.77419ZM12.4194 1.12903C11.1704 1.12903 10.1613 2.1381 10.1613 3.38709C10.1613 4.63609 11.1704 5.64516 12.4194 5.64516H32.7419C33.9909 5.64516 35 4.63609 35 3.38709C35 2.1381 33.9909 1.12903 32.7419 1.12903H12.4194ZM12.4194 12.4193C11.1704 12.4193 10.1613 13.4284 10.1613 14.6774C10.1613 15.9264 11.1704 16.9355 12.4194 16.9355H32.7419C33.9909 16.9355 35 15.9264 35 14.6774C35 13.4284 33.9909 12.4193 32.7419 12.4193H12.4194ZM12.4194 23.7097C11.1704 23.7097 10.1613 24.7187 10.1613 25.9677C10.1613 27.2167 11.1704 28.2258 12.4194 28.2258H32.7419C33.9909 28.2258 35 27.2167 35 25.9677C35 24.7187 33.9909 23.7097 32.7419 23.7097H12.4194ZM3.3871 29.3548C4.28541 29.3548 5.14693 28.998 5.78214 28.3628C6.41734 27.7276 6.77419 26.866 6.77419 25.9677C6.77419 25.0694 6.41734 24.2079 5.78214 23.5727C5.14693 22.9375 4.28541 22.5806 3.3871 22.5806C2.48878 22.5806 1.62726 22.9375 0.992058 23.5727C0.356854 24.2079 0 25.0694 0 25.9677C0 26.866 0.356854 27.7276 0.992058 28.3628C1.62726 28.998 2.48878 29.3548 3.3871 29.3548ZM6.77419 14.6774C6.77419 14.2326 6.68658 13.7922 6.51637 13.3812C6.34615 12.9703 6.09666 12.5969 5.78214 12.2824C5.46761 11.9679 5.09422 11.7184 4.68328 11.5481C4.27234 11.3779 3.8319 11.2903 3.3871 11.2903C2.9423 11.2903 2.50185 11.3779 2.09091 11.5481C1.67997 11.7184 1.30658 11.9679 0.992058 12.2824C0.677537 12.5969 0.428045 12.9703 0.257827 13.3812C0.0876098 13.7922 -6.62803e-09 14.2326 0 14.6774C-6.62803e-09 15.1222 0.0876098 15.5627 0.257827 15.9736C0.428045 16.3845 0.677537 16.7579 0.992058 17.0725C1.30658 17.387 1.67997 17.6365 2.09091 17.8067C2.50185 17.9769 2.9423 18.0645 3.3871 18.0645C3.8319 18.0645 4.27234 17.9769 4.68328 17.8067C5.09422 17.6365 5.46761 17.387 5.78214 17.0725C6.09666 16.7579 6.34615 16.3845 6.51637 15.9736C6.68658 15.5627 6.77419 15.1222 6.77419 14.6774Z" fill="#F59E0B"/>
</svg>
