<svg xmlns="http://www.w3.org/2000/svg" width="25" height="29" viewBox="0 0 25 29" fill="none">
<path d="M16.9643 7.14286C16.9643 5.95886 16.4939 4.82335 15.6567 3.98613C14.8195 3.14892 13.684 2.67857 12.5 2.67857C11.316 2.67857 10.1805 3.14892 9.34327 3.98613C8.50606 4.82335 8.03571 5.95886 8.03571 7.14286C8.03571 8.32686 8.50606 9.46237 9.34327 10.2996C10.1805 11.1368 11.316 11.6071 12.5 11.6071C13.684 11.6071 14.8195 11.1368 15.6567 10.2996C16.4939 9.46237 16.9643 8.32686 16.9643 7.14286ZM5.35714 7.14286C5.35714 5.24846 6.10969 3.43164 7.44924 2.0921C8.78878 0.752549 10.6056 0 12.5 0C14.3944 0 16.2112 0.752549 17.5508 2.0921C18.8903 3.43164 19.6429 5.24846 19.6429 7.14286C19.6429 9.03726 18.8903 10.8541 17.5508 12.1936C16.2112 13.5332 14.3944 14.2857 12.5 14.2857C10.6056 14.2857 8.78878 13.5332 7.44924 12.1936C6.10969 10.8541 5.35714 9.03726 5.35714 7.14286ZM2.75112 25.8929H22.2489C21.7522 22.3605 18.7165 19.6429 15.0502 19.6429H9.94978C6.28348 19.6429 3.24777 22.3605 2.75112 25.8929ZM0 26.9141C0 21.4174 4.45312 16.9643 9.94978 16.9643H15.0502C20.5469 16.9643 25 21.4174 25 26.9141C25 27.8293 24.2578 28.5714 23.3426 28.5714H1.65737C0.742188 28.5714 0 27.8293 0 26.9141Z" fill="#F59E0B"/>
</svg>