<svg width="50" height="44" viewBox="0 0 50 44" fill="none" xmlns="http://www.w3.org/2000/svg">
<path d="M17.1875 5.59375V9.5H32.8125V5.59375C32.8125 5.16406 32.4609 4.8125 32.0312 4.8125H17.9688C17.5391 4.8125 17.1875 5.16406 17.1875 5.59375ZM12.5 9.5V5.59375C12.5 2.57617 14.9512 0.125 17.9688 0.125H32.0312C35.0488 0.125 37.5 2.57617 37.5 5.59375V9.5H40.2441C41.4844 9.5 42.6758 9.99805 43.5547 10.877L48.623 15.9453C49.502 16.8242 50 18.0156 50 19.2559V26.6875H37.5V25.125C37.5 23.3965 36.1035 22 34.375 22C32.6465 22 31.25 23.3965 31.25 25.125V26.6875H18.75V25.125C18.75 23.3965 17.3535 22 15.625 22C13.8965 22 12.5 23.3965 12.5 25.125V26.6875H0V19.2559C0 18.0156 0.498047 16.8242 1.37695 15.9453L6.44531 10.877C7.32422 9.99805 8.51563 9.5 9.75586 9.5H12.5ZM0 37.625V29.8125H12.5V31.375C12.5 33.1035 13.8965 34.5 15.625 34.5C17.3535 34.5 18.75 33.1035 18.75 31.375V29.8125H31.25V31.375C31.25 33.1035 32.6465 34.5 34.375 34.5C36.1035 34.5 37.5 33.1035 37.5 31.375V29.8125H50V37.625C50 41.0723 47.1973 43.875 43.75 43.875H6.25C2.80273 43.875 0 41.0723 0 37.625Z" fill="#F59E0B"/>
</svg>
